<svg id="svg" version="1.1" xmlns="http://www.w3.org/2000/svg" xmlns:xlink="http://www.w3.org/1999/xlink" width="400" height="142.5" viewBox="0, 0, 400,142.5"><g id="svgg"><path id="path0" d="M91.241 25.392 C 90.382 25.782,90.333 26.224,90.333 33.704 C 90.333 42.667,90.296 42.496,92.276 42.503 C 93.310 42.507,95.567 42.878,97.167 43.308 C 97.854 43.492,98.860 43.722,99.403 43.819 C 99.945 43.915,100.748 44.182,101.187 44.411 C 101.625 44.641,102.343 44.909,102.780 45.007 C 103.218 45.105,103.807 45.362,104.090 45.577 C 104.373 45.793,104.888 46.088,105.234 46.232 C 105.580 46.377,106.090 46.687,106.368 46.921 C 106.646 47.154,107.126 47.451,107.435 47.580 C 107.744 47.709,108.188 48.006,108.422 48.240 C 108.656 48.474,109.058 48.774,109.315 48.907 C 109.573 49.041,109.909 49.341,110.062 49.575 C 110.216 49.809,110.422 50.000,110.522 50.000 C 110.754 50.000,112.384 51.631,112.646 52.125 C 112.756 52.331,112.956 52.500,113.092 52.500 C 113.227 52.500,113.468 52.714,113.628 52.976 C 113.787 53.238,114.161 53.657,114.458 53.907 C 114.756 54.158,115.000 54.480,115.000 54.623 C 115.000 54.765,115.248 55.190,115.552 55.566 C 115.855 55.942,116.200 56.490,116.319 56.784 C 116.437 57.077,116.713 57.434,116.932 57.578 C 117.179 57.740,117.401 58.123,117.519 58.589 C 117.623 59.002,117.923 59.611,118.187 59.942 C 118.451 60.274,118.667 60.671,118.667 60.825 C 118.667 60.978,118.934 61.646,119.260 62.308 C 119.587 62.971,119.926 63.979,120.014 64.548 C 120.102 65.118,120.364 66.014,120.596 66.540 C 121.608 68.837,121.600 77.919,120.583 80.333 C 120.345 80.899,120.092 81.844,120.021 82.434 C 119.941 83.101,119.758 83.686,119.537 83.985 C 119.342 84.249,119.021 84.964,118.824 85.573 C 118.628 86.182,118.291 86.889,118.077 87.143 C 117.863 87.398,117.636 87.826,117.573 88.095 C 117.509 88.363,117.285 88.771,117.074 89.000 C 116.863 89.229,116.496 89.806,116.258 90.282 C 116.020 90.757,115.678 91.194,115.496 91.251 C 115.315 91.309,115.167 91.432,115.167 91.526 C 115.167 91.620,114.829 92.046,114.417 92.473 C 114.005 92.900,113.442 93.513,113.167 93.833 C 112.148 95.019,109.592 97.500,109.389 97.500 C 109.273 97.500,108.932 97.715,108.631 97.978 C 108.330 98.240,107.749 98.625,107.341 98.832 C 106.933 99.039,106.459 99.386,106.287 99.604 C 106.116 99.822,105.842 100.000,105.679 100.000 C 105.516 100.000,105.152 100.220,104.870 100.490 C 104.589 100.759,104.034 101.072,103.637 101.185 C 103.241 101.298,102.504 101.632,102.000 101.928 C 101.473 102.237,100.735 102.509,100.264 102.567 C 99.813 102.622,99.025 102.865,98.514 103.105 C 96.122 104.228,85.011 104.283,82.860 103.182 C 82.463 102.978,81.564 102.702,80.863 102.568 C 80.090 102.420,79.348 102.158,78.978 101.901 C 78.643 101.669,77.976 101.376,77.497 101.249 C 77.018 101.123,76.465 100.869,76.269 100.684 C 76.073 100.500,75.613 100.225,75.248 100.072 C 74.882 99.920,74.302 99.541,73.958 99.231 C 73.614 98.921,73.248 98.667,73.145 98.667 C 72.942 98.667,71.969 97.899,71.114 97.066 C 70.822 96.781,70.368 96.410,70.106 96.242 C 69.843 96.074,68.811 94.994,67.813 93.843 C 66.815 92.692,65.774 91.508,65.499 91.213 C 65.225 90.918,65.000 90.564,65.000 90.427 C 65.000 90.290,64.775 89.922,64.499 89.608 C 64.224 89.295,63.878 88.748,63.730 88.394 C 63.582 88.040,63.296 87.585,63.094 87.383 C 62.893 87.181,62.638 86.628,62.529 86.155 C 62.420 85.682,62.150 85.080,61.930 84.819 C 61.579 84.402,61.167 83.102,61.167 82.413 C 61.167 82.282,60.935 81.592,60.652 80.879 C 60.184 79.704,60.124 79.335,60.003 76.917 C 59.798 72.795,60.713 73.167,50.766 73.167 L 43.072 73.167 42.786 73.651 C 42.301 74.472,42.533 78.851,43.169 80.869 C 43.350 81.445,43.575 82.578,43.669 83.386 C 43.776 84.309,44.047 85.393,44.398 86.303 C 44.705 87.099,45.007 88.084,45.069 88.493 C 45.131 88.901,45.394 89.614,45.654 90.076 C 45.914 90.538,46.174 91.182,46.231 91.507 C 46.289 91.832,46.594 92.499,46.910 92.989 C 47.225 93.479,47.529 94.087,47.585 94.340 C 47.640 94.592,47.839 94.938,48.026 95.107 C 48.214 95.277,48.580 95.885,48.840 96.458 C 49.100 97.031,49.383 97.500,49.470 97.500 C 49.557 97.500,49.792 97.905,49.993 98.399 C 50.194 98.894,50.540 99.469,50.762 99.678 C 50.985 99.887,51.167 100.188,51.167 100.347 C 51.167 100.505,51.429 100.949,51.750 101.333 C 52.071 101.717,52.333 102.085,52.333 102.151 C 52.333 102.267,53.256 103.441,54.362 104.731 C 55.382 105.921,59.499 110.000,59.680 110.000 C 59.779 110.000,60.087 110.228,60.365 110.506 C 60.644 110.785,61.162 111.161,61.517 111.342 C 61.872 111.523,62.284 111.857,62.433 112.085 C 62.583 112.313,62.800 112.500,62.917 112.500 C 63.033 112.500,63.381 112.747,63.689 113.050 C 63.998 113.352,64.550 113.700,64.917 113.823 C 65.283 113.946,65.830 114.261,66.131 114.523 C 66.432 114.785,66.780 115.000,66.904 115.000 C 67.028 115.000,67.496 115.252,67.944 115.560 C 68.391 115.868,68.944 116.177,69.171 116.247 C 69.398 116.317,70.041 116.627,70.599 116.937 C 71.158 117.247,71.773 117.500,71.967 117.500 C 72.386 117.500,73.053 117.783,73.786 118.270 C 74.080 118.467,74.663 118.678,75.080 118.741 C 75.497 118.803,76.569 119.111,77.461 119.424 C 78.353 119.737,79.337 119.994,79.647 119.996 C 79.956 119.998,81.044 120.183,82.063 120.406 C 83.083 120.629,84.367 120.907,84.917 121.023 C 86.461 121.350,95.101 121.294,96.417 120.948 C 98.309 120.450,99.753 120.165,101.107 120.020 C 101.996 119.924,102.797 119.717,103.428 119.419 C 103.958 119.168,104.970 118.862,105.678 118.738 C 106.485 118.597,107.196 118.357,107.583 118.094 C 107.922 117.864,108.474 117.631,108.808 117.577 C 109.530 117.460,109.897 117.296,110.629 116.760 C 110.929 116.541,111.461 116.313,111.810 116.254 C 112.160 116.195,112.809 115.889,113.252 115.573 C 113.696 115.258,114.182 115.000,114.334 115.000 C 114.485 115.000,114.790 114.802,115.013 114.561 C 115.235 114.319,115.754 113.971,116.167 113.787 C 116.579 113.603,117.163 113.239,117.464 112.977 C 117.765 112.714,118.094 112.500,118.195 112.500 C 118.297 112.500,118.725 112.193,119.148 111.817 C 119.571 111.441,120.067 111.002,120.250 110.840 C 120.433 110.678,120.883 110.344,121.250 110.098 C 122.006 109.591,122.099 109.505,124.500 107.127 C 127.002 104.648,128.127 103.375,128.700 102.372 C 128.976 101.889,129.333 101.402,129.493 101.289 C 129.653 101.176,129.911 100.836,130.067 100.533 C 130.223 100.230,130.465 99.939,130.604 99.886 C 130.743 99.832,131.038 99.380,131.259 98.880 C 131.480 98.380,131.850 97.747,132.080 97.473 C 132.311 97.199,132.500 96.826,132.500 96.646 C 132.500 96.213,132.879 95.494,133.316 95.099 C 133.509 94.924,133.667 94.658,133.667 94.506 C 133.667 94.354,133.935 93.785,134.263 93.240 C 134.591 92.696,134.935 91.841,135.028 91.340 C 135.121 90.840,135.382 90.065,135.608 89.618 C 135.834 89.172,136.194 88.156,136.407 87.362 C 136.620 86.567,136.917 85.594,137.066 85.200 C 137.215 84.805,137.413 83.757,137.505 82.871 C 137.597 81.984,137.818 80.645,137.996 79.895 C 138.788 76.558,138.883 70.313,138.183 67.583 C 137.995 66.850,137.757 65.500,137.655 64.583 C 137.553 63.667,137.320 62.467,137.137 61.917 C 136.954 61.367,136.654 60.317,136.471 59.583 C 136.288 58.850,135.921 57.800,135.655 57.250 C 135.389 56.700,135.122 55.987,135.062 55.667 C 134.943 55.032,134.585 54.229,134.245 53.833 C 134.127 53.696,133.907 53.158,133.757 52.639 C 133.607 52.120,133.363 51.595,133.215 51.472 C 133.067 51.350,132.800 50.922,132.623 50.521 C 132.445 50.120,132.044 49.458,131.733 49.050 C 131.422 48.642,131.167 48.203,131.167 48.074 C 131.167 47.946,130.987 47.723,130.767 47.579 C 130.547 47.435,130.271 47.077,130.153 46.784 C 130.036 46.490,129.719 45.993,129.450 45.680 C 129.180 45.366,128.875 44.910,128.772 44.666 C 128.435 43.871,121.097 36.167,120.677 36.167 C 120.593 36.167,120.379 35.982,120.202 35.757 C 120.025 35.532,119.663 35.253,119.398 35.139 C 119.133 35.024,118.660 34.711,118.345 34.444 C 118.031 34.177,117.506 33.846,117.179 33.710 C 116.851 33.573,116.337 33.245,116.036 32.980 C 115.735 32.716,115.397 32.499,115.286 32.498 C 115.174 32.497,114.708 32.198,114.250 31.833 C 113.792 31.469,113.298 31.169,113.154 31.168 C 113.010 31.167,112.713 30.977,112.495 30.745 C 112.276 30.512,111.685 30.205,111.174 30.059 C 110.666 29.914,110.100 29.661,109.917 29.497 C 109.494 29.119,108.407 28.667,107.920 28.667 C 107.715 28.667,107.130 28.444,106.621 28.173 C 106.112 27.901,105.258 27.607,104.723 27.520 C 104.188 27.433,103.395 27.209,102.962 27.022 C 102.066 26.635,99.958 26.167,99.115 26.167 C 98.804 26.167,97.470 25.972,96.150 25.733 C 93.079 25.178,91.895 25.096,91.241 25.392 M42.781 42.799 C 42.311 43.318,42.358 58.181,42.832 58.958 L 43.162 59.500 50.661 59.500 C 58.662 59.500,59.250 59.445,59.672 58.658 C 59.987 58.068,59.880 43.079,59.558 42.812 C 59.063 42.401,43.153 42.388,42.781 42.799 M351.583 51.324 C 350.331 51.837,350.340 51.678,350.337 73.183 L 350.333 91.948 350.684 92.266 C 351.185 92.720,358.126 92.851,358.563 92.414 C 359.032 91.944,358.971 51.971,358.500 51.500 C 358.144 51.144,352.382 50.997,351.583 51.324 M182.667 53.854 C 182.346 53.951,181.980 54.116,181.853 54.220 C 181.432 54.568,181.757 91.808,182.186 92.250 C 182.831 92.916,200.883 92.769,202.667 92.083 C 203.079 91.924,204.061 91.621,204.849 91.410 C 205.637 91.198,206.645 90.795,207.090 90.513 C 207.535 90.231,208.021 90.000,208.170 90.000 C 208.320 90.000,208.624 89.802,208.846 89.561 C 209.068 89.319,209.551 88.986,209.919 88.820 C 210.287 88.655,210.830 88.271,211.125 87.968 C 211.419 87.665,211.816 87.267,212.006 87.083 C 212.619 86.492,213.664 85.156,213.939 84.612 C 214.085 84.321,214.351 83.924,214.529 83.729 C 214.707 83.534,214.956 82.981,215.083 82.500 C 215.210 82.019,215.470 81.460,215.660 81.257 C 215.890 81.012,216.088 80.424,216.250 79.497 C 216.385 78.732,216.643 77.679,216.823 77.158 C 217.363 75.598,217.487 71.404,217.037 69.901 C 216.848 69.268,216.540 68.015,216.352 67.117 C 216.153 66.163,215.870 65.304,215.672 65.052 C 215.485 64.815,215.220 64.240,215.081 63.775 C 214.943 63.310,214.625 62.734,214.374 62.496 C 214.122 62.257,213.785 61.842,213.625 61.573 C 212.645 59.928,211.595 58.869,209.601 57.511 C 209.408 57.379,209.025 57.068,208.750 56.820 C 208.453 56.552,207.900 56.295,207.390 56.189 C 206.916 56.090,206.253 55.822,205.915 55.593 C 205.576 55.363,205.026 55.135,204.692 55.086 C 204.042 54.990,202.281 54.629,200.917 54.311 C 199.102 53.889,183.819 53.506,182.667 53.854 M295.042 53.996 L 294.333 54.317 294.333 58.146 L 294.333 61.976 293.894 62.321 C 293.587 62.563,293.212 62.667,292.644 62.667 C 291.253 62.667,291.167 62.857,291.167 65.921 L 291.167 68.508 291.594 68.671 C 291.829 68.760,292.357 68.833,292.766 68.833 C 293.176 68.833,293.771 68.942,294.089 69.075 L 294.667 69.316 294.667 74.041 C 294.667 82.134,294.966 86.885,295.517 87.520 C 295.701 87.732,296.042 88.254,296.273 88.680 C 296.549 89.186,297.036 89.695,297.681 90.149 C 298.223 90.532,298.667 90.909,298.667 90.988 C 298.667 91.066,298.853 91.177,299.080 91.234 C 299.307 91.291,299.721 91.561,300.000 91.833 C 300.279 92.106,300.674 92.358,300.878 92.395 C 301.083 92.431,301.887 92.590,302.667 92.749 C 304.863 93.197,305.296 93.222,306.221 92.955 C 306.695 92.819,307.598 92.628,308.227 92.532 C 309.026 92.410,309.494 92.240,309.781 91.970 C 310.007 91.757,310.573 91.394,311.038 91.163 C 311.504 90.932,312.104 90.474,312.370 90.144 L 312.856 89.545 312.590 88.630 C 312.444 88.127,312.150 87.552,311.937 87.352 C 311.608 87.043,311.405 86.580,311.071 85.380 C 310.918 84.832,309.439 84.169,309.124 84.507 C 308.117 85.589,306.031 86.090,305.118 85.470 C 304.824 85.269,304.401 84.984,304.178 84.835 C 303.253 84.217,303.024 82.366,303.011 75.391 L 303.000 69.199 303.525 69.016 C 303.823 68.912,305.226 68.833,306.775 68.833 C 310.397 68.833,310.233 68.984,310.136 65.736 C 310.038 62.498,310.221 62.667,306.802 62.667 C 304.868 62.667,304.000 62.602,303.578 62.425 L 303.000 62.184 303.000 58.272 L 303.000 54.361 302.439 54.014 C 301.620 53.508,296.145 53.494,295.042 53.996 M199.167 61.900 C 199.579 62.065,200.404 62.307,201.000 62.439 C 201.596 62.570,202.273 62.815,202.505 62.984 C 202.737 63.152,203.262 63.460,203.672 63.669 C 204.399 64.039,206.167 65.651,206.167 65.944 C 206.167 66.025,206.438 66.502,206.769 67.004 C 207.284 67.785,207.404 68.157,207.600 69.583 C 207.727 70.500,207.919 71.874,208.027 72.636 C 208.179 73.707,208.179 74.200,208.025 74.803 C 207.915 75.232,207.721 76.383,207.594 77.360 C 207.365 79.106,207.141 79.833,206.832 79.833 C 206.746 79.833,206.550 80.076,206.396 80.373 C 206.043 81.056,204.806 82.500,204.574 82.500 C 204.478 82.500,204.028 82.736,203.574 83.025 C 203.121 83.313,202.412 83.643,202.000 83.757 C 201.588 83.871,200.950 84.094,200.583 84.253 C 198.890 84.985,192.289 85.330,191.158 84.746 L 190.667 84.491 190.667 73.854 C 190.667 62.756,190.689 62.388,191.388 61.777 C 191.893 61.337,198.000 61.434,199.167 61.900 M248.713 62.654 C 248.417 62.728,247.975 62.931,247.731 63.103 C 247.030 63.598,246.944 63.641,246.461 63.742 C 246.211 63.795,245.761 64.053,245.461 64.316 C 245.162 64.579,244.654 64.909,244.333 65.049 C 244.012 65.189,243.515 65.554,243.227 65.860 C 242.940 66.166,242.358 66.776,241.935 67.216 C 241.513 67.656,241.167 68.083,241.167 68.166 C 241.167 68.249,240.943 68.526,240.669 68.783 C 240.326 69.104,240.124 69.500,240.022 70.052 C 239.940 70.493,239.719 71.018,239.531 71.218 C 238.567 72.247,237.985 77.097,238.466 80.083 C 238.938 83.010,238.994 83.226,239.403 83.655 C 239.627 83.891,239.897 84.430,240.003 84.854 C 240.109 85.277,240.414 85.863,240.681 86.156 C 240.948 86.448,241.167 86.794,241.167 86.925 C 241.167 87.056,241.429 87.333,241.749 87.540 C 242.070 87.747,242.373 88.041,242.422 88.193 C 242.472 88.346,242.716 88.599,242.965 88.757 C 243.213 88.915,243.584 89.251,243.789 89.503 C 243.996 89.758,244.402 90.007,244.705 90.065 C 245.005 90.121,245.588 90.392,246.000 90.667 C 246.412 90.941,246.857 91.166,246.987 91.166 C 247.118 91.166,247.756 91.346,248.404 91.565 C 250.893 92.406,252.977 92.393,255.667 91.521 C 256.262 91.327,256.891 91.169,257.063 91.168 C 257.236 91.167,257.725 90.917,258.150 90.611 C 258.576 90.305,259.119 90.006,259.358 89.946 C 259.597 89.886,259.916 89.649,260.067 89.419 C 260.375 88.949,260.855 88.875,261.166 89.249 C 261.510 89.664,261.226 91.903,260.759 92.463 C 260.551 92.712,260.262 93.147,260.118 93.429 C 259.757 94.132,257.406 96.167,256.954 96.167 C 256.825 96.167,255.901 96.428,254.901 96.747 C 252.506 97.511,251.269 97.535,249.695 96.848 C 249.083 96.581,248.208 96.309,247.750 96.243 C 246.837 96.113,246.440 95.946,245.944 95.484 C 245.765 95.317,245.197 95.089,244.684 94.979 C 244.170 94.869,243.629 94.719,243.481 94.646 C 243.188 94.501,242.720 94.928,242.362 95.667 C 242.250 95.896,241.975 96.335,241.750 96.644 C 241.526 96.952,241.298 97.477,241.245 97.810 C 241.192 98.144,241.040 98.663,240.907 98.964 C 240.450 100.003,240.581 100.754,241.292 101.184 C 241.635 101.391,242.163 101.772,242.464 102.031 C 242.765 102.289,243.118 102.500,243.248 102.500 C 243.379 102.500,243.877 102.731,244.355 103.013 C 244.895 103.331,245.704 103.613,246.488 103.755 C 247.182 103.881,248.012 104.066,248.333 104.165 C 250.394 104.804,252.631 104.821,255.500 104.220 C 256.646 103.980,257.898 103.733,258.283 103.670 C 258.668 103.607,259.281 103.358,259.645 103.118 C 260.009 102.877,260.519 102.628,260.778 102.565 C 261.038 102.501,261.656 102.161,262.152 101.808 C 262.648 101.455,263.114 101.167,263.187 101.167 C 263.358 101.167,266.167 98.360,266.167 98.189 C 266.167 98.117,266.429 97.689,266.751 97.238 C 267.072 96.786,267.417 96.154,267.519 95.833 C 267.620 95.513,267.882 94.984,268.101 94.658 C 268.817 93.595,268.843 92.956,268.795 77.679 C 268.751 63.506,268.742 63.134,268.426 62.903 C 268.174 62.719,267.411 62.667,264.963 62.667 C 261.068 62.667,260.828 62.739,260.472 64.022 C 260.052 65.538,259.441 65.593,257.846 64.260 C 257.455 63.934,256.997 63.667,256.829 63.667 C 256.660 63.667,256.130 63.423,255.651 63.125 L 254.780 62.583 252.015 62.551 C 250.494 62.533,249.008 62.579,248.713 62.654 M326.167 62.661 C 325.754 62.738,325.004 62.995,324.500 63.232 C 323.996 63.469,323.358 63.663,323.083 63.662 C 322.808 63.662,321.983 63.959,321.250 64.322 C 320.517 64.686,319.721 65.023,319.482 65.072 C 318.966 65.178,317.500 66.532,317.500 66.904 C 317.500 67.207,318.759 69.158,319.493 69.993 C 319.772 70.310,320.000 70.655,320.000 70.759 C 320.000 71.647,322.444 71.613,323.516 70.711 C 324.086 70.232,326.409 69.511,327.417 69.502 C 327.783 69.498,328.383 69.391,328.749 69.263 C 329.350 69.054,329.493 69.064,330.249 69.366 C 330.708 69.550,331.551 69.833,332.124 69.995 C 333.427 70.365,333.524 70.449,333.903 71.532 C 334.074 72.018,334.278 72.488,334.357 72.575 C 335.046 73.336,334.360 73.601,331.333 73.741 C 326.450 73.967,325.300 74.091,323.773 74.553 C 322.961 74.799,322.114 75.000,321.891 75.000 C 321.456 75.000,320.257 75.553,320.083 75.833 C 320.025 75.928,319.739 76.110,319.447 76.238 C 318.817 76.516,317.500 77.763,317.500 78.083 C 317.500 78.207,317.306 78.538,317.069 78.820 C 315.835 80.287,315.867 85.842,317.119 87.388 C 317.328 87.647,317.500 87.990,317.500 88.149 C 317.500 88.309,317.706 88.673,317.958 88.959 C 318.210 89.244,318.537 89.614,318.684 89.781 C 319.271 90.444,320.358 91.333,320.583 91.333 C 320.714 91.333,321.074 91.555,321.383 91.826 C 321.790 92.184,322.284 92.389,323.180 92.575 C 323.860 92.716,324.679 92.907,324.999 92.999 C 326.794 93.516,330.636 92.854,332.237 91.751 C 332.704 91.430,333.155 91.167,333.239 91.167 C 333.324 91.167,333.596 90.923,333.845 90.625 C 334.451 89.900,335.000 90.283,335.000 91.431 C 335.000 92.645,335.066 92.667,338.823 92.667 C 341.908 92.667,342.150 92.644,342.561 92.321 L 343.000 91.976 342.994 83.446 C 342.987 72.468,342.739 69.348,341.771 68.029 C 341.439 67.576,341.167 67.154,341.167 67.092 C 341.167 66.868,339.422 65.000,339.213 65.000 C 339.096 65.000,338.644 64.743,338.207 64.430 C 337.771 64.116,337.189 63.810,336.915 63.750 C 336.641 63.689,335.938 63.404,335.352 63.116 L 334.288 62.594 330.602 62.557 C 328.575 62.536,326.579 62.583,326.167 62.661 M165.234 63.017 C 164.787 63.511,164.641 91.599,165.083 92.272 C 165.462 92.851,172.000 92.893,172.728 92.321 L 173.167 91.976 173.167 78.066 C 173.167 62.919,173.183 63.188,172.247 62.832 C 171.307 62.475,165.589 62.626,165.234 63.017 M224.000 63.000 C 223.470 63.530,223.476 92.220,224.006 92.503 C 224.628 92.836,231.229 92.647,231.628 92.285 C 231.949 91.995,231.960 91.635,232.078 78.035 C 232.209 62.849,232.234 63.317,231.256 62.909 C 230.255 62.490,224.437 62.563,224.000 63.000 M277.540 62.916 C 276.652 63.302,276.667 63.046,276.667 78.103 L 276.667 92.184 277.245 92.425 C 278.363 92.892,284.593 92.767,284.918 92.271 C 285.360 91.597,285.214 63.512,284.766 63.017 C 284.361 62.570,278.525 62.488,277.540 62.916 M255.100 69.820 C 255.366 69.905,255.877 70.023,256.237 70.083 C 256.631 70.149,257.061 70.373,257.320 70.648 C 257.557 70.899,257.878 71.152,258.035 71.211 C 258.191 71.269,258.511 71.621,258.745 71.992 C 258.979 72.363,259.242 72.667,259.330 72.667 C 260.150 72.667,260.906 77.317,260.351 78.953 C 260.158 79.523,260.000 80.172,260.000 80.396 C 260.000 80.778,259.594 81.378,258.302 82.902 C 257.999 83.260,257.375 83.733,256.917 83.952 C 256.458 84.172,255.858 84.473,255.583 84.622 C 254.015 85.471,249.890 84.388,248.902 82.868 C 248.741 82.620,248.388 82.151,248.116 81.826 C 247.638 81.253,247.243 80.087,246.820 78.001 C 246.599 76.911,246.722 75.781,247.168 74.799 C 247.346 74.406,247.494 73.909,247.496 73.696 C 247.500 73.348,247.815 72.937,249.034 71.693 C 249.731 70.982,250.705 70.335,251.315 70.178 C 251.646 70.092,252.179 69.950,252.500 69.862 C 253.272 69.649,254.500 69.629,255.100 69.820 M333.766 80.269 C 335.205 80.951,334.131 84.172,332.080 85.332 L 330.750 86.083 328.914 86.083 C 325.544 86.083,323.777 84.069,325.019 81.643 C 325.665 80.381,331.930 79.397,333.766 80.269 " stroke="none" fill="#2589ec" fill-rule="evenodd"></path><path id="path1" d="M0.000 71.250 L 0.000 142.500 200.000 142.500 L 400.000 142.500 400.000 71.250 L 400.000 0.000 200.000 0.000 L 0.000 0.000 0.000 71.250 M96.150 25.733 C 97.470 25.972,98.804 26.167,99.115 26.167 C 99.958 26.167,102.066 26.635,102.962 27.022 C 103.395 27.209,104.188 27.433,104.723 27.520 C 105.258 27.607,106.112 27.901,106.621 28.173 C 107.130 28.444,107.715 28.667,107.920 28.667 C 108.407 28.667,109.494 29.119,109.917 29.497 C 110.100 29.661,110.666 29.914,111.174 30.059 C 111.685 30.205,112.276 30.512,112.495 30.745 C 112.713 30.977,113.010 31.167,113.154 31.168 C 113.298 31.169,113.792 31.469,114.250 31.833 C 114.708 32.198,115.174 32.497,115.286 32.498 C 115.397 32.499,115.735 32.716,116.036 32.980 C 116.337 33.245,116.851 33.573,117.179 33.710 C 117.506 33.846,118.031 34.177,118.345 34.444 C 118.660 34.711,119.133 35.024,119.398 35.139 C 119.663 35.253,120.025 35.532,120.202 35.757 C 120.379 35.982,120.593 36.167,120.677 36.167 C 121.097 36.167,128.435 43.871,128.772 44.666 C 128.875 44.910,129.180 45.366,129.450 45.680 C 129.719 45.993,130.036 46.490,130.153 46.784 C 130.271 47.077,130.547 47.435,130.767 47.579 C 130.987 47.723,131.167 47.946,131.167 48.074 C 131.167 48.203,131.422 48.642,131.733 49.050 C 132.044 49.458,132.445 50.120,132.623 50.521 C 132.800 50.922,133.067 51.350,133.215 51.472 C 133.363 51.595,133.607 52.120,133.757 52.639 C 133.907 53.158,134.127 53.696,134.245 53.833 C 134.585 54.229,134.943 55.032,135.062 55.667 C 135.122 55.987,135.389 56.700,135.655 57.250 C 135.921 57.800,136.288 58.850,136.471 59.583 C 136.654 60.317,136.954 61.367,137.137 61.917 C 137.320 62.467,137.553 63.667,137.655 64.583 C 137.757 65.500,137.995 66.850,138.183 67.583 C 138.883 70.313,138.788 76.558,137.996 79.895 C 137.818 80.645,137.597 81.984,137.505 82.871 C 137.413 83.757,137.215 84.805,137.066 85.200 C 136.917 85.594,136.620 86.567,136.407 87.362 C 136.194 88.156,135.834 89.172,135.608 89.618 C 135.382 90.065,135.121 90.840,135.028 91.340 C 134.935 91.841,134.591 92.696,134.263 93.240 C 133.935 93.785,133.667 94.354,133.667 94.506 C 133.667 94.658,133.509 94.924,133.316 95.099 C 132.879 95.494,132.500 96.213,132.500 96.646 C 132.500 96.826,132.311 97.199,132.080 97.473 C 131.850 97.747,131.480 98.380,131.259 98.880 C 131.038 99.380,130.743 99.832,130.604 99.886 C 130.465 99.939,130.223 100.230,130.067 100.533 C 129.911 100.836,129.653 101.176,129.493 101.289 C 129.333 101.402,128.976 101.889,128.700 102.372 C 128.127 103.375,127.002 104.648,124.500 107.127 C 122.099 109.505,122.006 109.591,121.250 110.098 C 120.883 110.344,120.433 110.678,120.250 110.840 C 120.067 111.002,119.571 111.441,119.148 111.817 C 118.725 112.193,118.297 112.500,118.195 112.500 C 118.094 112.500,117.765 112.714,117.464 112.977 C 117.163 113.239,116.579 113.603,116.167 113.787 C 115.754 113.971,115.235 114.319,115.013 114.561 C 114.790 114.802,114.485 115.000,114.334 115.000 C 114.182 115.000,113.696 115.258,113.252 115.573 C 112.809 115.889,112.160 116.195,111.810 116.254 C 111.461 116.313,110.929 116.541,110.629 116.760 C 109.897 117.296,109.530 117.460,108.808 117.577 C 108.474 117.631,107.922 117.864,107.583 118.094 C 107.196 118.357,106.485 118.597,105.678 118.738 C 104.970 118.862,103.958 119.168,103.428 119.419 C 102.797 119.717,101.996 119.924,101.107 120.020 C 99.753 120.165,98.309 120.450,96.417 120.948 C 95.101 121.294,86.461 121.350,84.917 121.023 C 84.367 120.907,83.083 120.629,82.063 120.406 C 81.044 120.183,79.956 119.998,79.647 119.996 C 79.337 119.994,78.353 119.737,77.461 119.424 C 76.569 119.111,75.497 118.803,75.080 118.741 C 74.663 118.678,74.080 118.467,73.786 118.270 C 73.053 117.783,72.386 117.500,71.967 117.500 C 71.773 117.500,71.158 117.247,70.599 116.937 C 70.041 116.627,69.398 116.317,69.171 116.247 C 68.944 116.177,68.391 115.868,67.944 115.560 C 67.496 115.252,67.028 115.000,66.904 115.000 C 66.780 115.000,66.432 114.785,66.131 114.523 C 65.830 114.261,65.283 113.946,64.917 113.823 C 64.550 113.700,63.998 113.352,63.689 113.050 C 63.381 112.747,63.033 112.500,62.917 112.500 C 62.800 112.500,62.583 112.313,62.433 112.085 C 62.284 111.857,61.872 111.523,61.517 111.342 C 61.162 111.161,60.644 110.785,60.365 110.506 C 60.087 110.228,59.779 110.000,59.680 110.000 C 59.499 110.000,55.382 105.921,54.362 104.731 C 53.256 103.441,52.333 102.267,52.333 102.151 C 52.333 102.085,52.071 101.717,51.750 101.333 C 51.429 100.949,51.167 100.505,51.167 100.347 C 51.167 100.188,50.985 99.887,50.762 99.678 C 50.540 99.469,50.194 98.894,49.993 98.399 C 49.792 97.905,49.557 97.500,49.470 97.500 C 49.383 97.500,49.100 97.031,48.840 96.458 C 48.580 95.885,48.214 95.277,48.026 95.107 C 47.839 94.938,47.640 94.592,47.585 94.340 C 47.529 94.087,47.225 93.479,46.910 92.989 C 46.594 92.499,46.289 91.832,46.231 91.507 C 46.174 91.182,45.914 90.538,45.654 90.076 C 45.394 89.614,45.131 88.901,45.069 88.493 C 45.007 88.084,44.705 87.099,44.398 86.303 C 44.047 85.393,43.776 84.309,43.669 83.386 C 43.575 82.578,43.350 81.445,43.169 80.869 C 42.533 78.851,42.301 74.472,42.786 73.651 L 43.072 73.167 50.766 73.167 C 60.713 73.167,59.798 72.795,60.003 76.917 C 60.124 79.335,60.184 79.704,60.652 80.879 C 60.935 81.592,61.167 82.282,61.167 82.413 C 61.167 83.102,61.579 84.402,61.930 84.819 C 62.150 85.080,62.420 85.682,62.529 86.155 C 62.638 86.628,62.893 87.181,63.094 87.383 C 63.296 87.585,63.582 88.040,63.730 88.394 C 63.878 88.748,64.224 89.295,64.499 89.608 C 64.775 89.922,65.000 90.290,65.000 90.427 C 65.000 90.564,65.225 90.918,65.499 91.213 C 65.774 91.508,66.815 92.692,67.813 93.843 C 68.811 94.994,69.843 96.074,70.106 96.242 C 70.368 96.410,70.822 96.781,71.114 97.066 C 71.969 97.899,72.942 98.667,73.145 98.667 C 73.248 98.667,73.614 98.921,73.958 99.231 C 74.302 99.541,74.882 99.920,75.248 100.072 C 75.613 100.225,76.073 100.500,76.269 100.684 C 76.465 100.869,77.018 101.123,77.497 101.249 C 77.976 101.376,78.643 101.669,78.978 101.901 C 79.348 102.158,80.090 102.420,80.863 102.568 C 81.564 102.702,82.463 102.978,82.860 103.182 C 85.011 104.283,96.122 104.228,98.514 103.105 C 99.025 102.865,99.813 102.622,100.264 102.567 C 100.735 102.509,101.473 102.237,102.000 101.928 C 102.504 101.632,103.241 101.298,103.637 101.185 C 104.034 101.072,104.589 100.759,104.870 100.490 C 105.152 100.220,105.516 100.000,105.679 100.000 C 105.842 100.000,106.116 99.822,106.287 99.604 C 106.459 99.386,106.933 99.039,107.341 98.832 C 107.749 98.625,108.330 98.240,108.631 97.978 C 108.932 97.715,109.273 97.500,109.389 97.500 C 109.592 97.500,112.148 95.019,113.167 93.833 C 113.442 93.513,114.005 92.900,114.417 92.473 C 114.829 92.046,115.167 91.620,115.167 91.526 C 115.167 91.432,115.315 91.309,115.496 91.251 C 115.678 91.194,116.020 90.757,116.258 90.282 C 116.496 89.806,116.863 89.229,117.074 89.000 C 117.285 88.771,117.509 88.363,117.573 88.095 C 117.636 87.826,117.863 87.398,118.077 87.143 C 118.291 86.889,118.628 86.182,118.824 85.573 C 119.021 84.964,119.342 84.249,119.537 83.985 C 119.758 83.686,119.941 83.101,120.021 82.434 C 120.092 81.844,120.345 80.899,120.583 80.333 C 121.600 77.919,121.608 68.837,120.596 66.540 C 120.364 66.014,120.102 65.118,120.014 64.548 C 119.926 63.979,119.587 62.971,119.260 62.308 C 118.934 61.646,118.667 60.978,118.667 60.825 C 118.667 60.671,118.451 60.274,118.187 59.942 C 117.923 59.611,117.623 59.002,117.519 58.589 C 117.401 58.123,117.179 57.740,116.932 57.578 C 116.713 57.434,116.437 57.077,116.319 56.784 C 116.200 56.490,115.855 55.942,115.552 55.566 C 115.248 55.190,115.000 54.765,115.000 54.623 C 115.000 54.480,114.756 54.158,114.458 53.907 C 114.161 53.657,113.787 53.238,113.628 52.976 C 113.468 52.714,113.227 52.500,113.092 52.500 C 112.956 52.500,112.756 52.331,112.646 52.125 C 112.384 51.631,110.754 50.000,110.522 50.000 C 110.422 50.000,110.216 49.809,110.062 49.575 C 109.909 49.341,109.573 49.041,109.315 48.907 C 109.058 48.774,108.656 48.474,108.422 48.240 C 108.188 48.006,107.744 47.709,107.435 47.580 C 107.126 47.451,106.646 47.154,106.368 46.921 C 106.090 46.687,105.580 46.377,105.234 46.232 C 104.888 46.088,104.373 45.793,104.090 45.577 C 103.807 45.362,103.218 45.105,102.780 45.007 C 102.343 44.909,101.625 44.641,101.187 44.411 C 100.748 44.182,99.945 43.915,99.403 43.819 C 98.860 43.722,97.854 43.492,97.167 43.308 C 95.567 42.878,93.310 42.507,92.276 42.503 C 90.296 42.496,90.333 42.667,90.333 33.704 C 90.333 24.172,90.004 24.622,96.150 25.733 M59.558 42.812 C 59.880 43.079,59.987 58.068,59.672 58.658 C 59.250 59.445,58.662 59.500,50.661 59.500 L 43.162 59.500 42.832 58.958 C 42.358 58.181,42.311 43.318,42.781 42.799 C 43.153 42.388,59.063 42.401,59.558 42.812 M358.500 51.500 C 358.971 51.971,359.032 91.944,358.563 92.414 C 358.126 92.851,351.185 92.720,350.684 92.266 L 350.333 91.948 350.337 73.183 C 350.340 51.678,350.331 51.837,351.583 51.324 C 352.382 50.997,358.144 51.144,358.500 51.500 M197.583 53.983 C 198.958 54.057,200.458 54.205,200.917 54.311 C 202.281 54.629,204.042 54.990,204.692 55.086 C 205.026 55.135,205.576 55.363,205.915 55.593 C 206.253 55.822,206.916 56.090,207.390 56.189 C 207.900 56.295,208.453 56.552,208.750 56.820 C 209.025 57.068,209.408 57.379,209.601 57.511 C 211.595 58.869,212.645 59.928,213.625 61.573 C 213.785 61.842,214.122 62.257,214.374 62.496 C 214.625 62.734,214.943 63.310,215.081 63.775 C 215.220 64.240,215.485 64.815,215.672 65.052 C 215.870 65.304,216.153 66.163,216.352 67.117 C 216.540 68.015,216.848 69.268,217.037 69.901 C 217.487 71.404,217.363 75.598,216.823 77.158 C 216.643 77.679,216.385 78.732,216.250 79.497 C 216.088 80.424,215.890 81.012,215.660 81.257 C 215.470 81.460,215.210 82.019,215.083 82.500 C 214.956 82.981,214.707 83.534,214.529 83.729 C 214.351 83.924,214.085 84.321,213.939 84.612 C 213.664 85.156,212.619 86.492,212.006 87.083 C 211.816 87.267,211.419 87.665,211.125 87.968 C 210.830 88.271,210.287 88.655,209.919 88.820 C 209.551 88.986,209.068 89.319,208.846 89.561 C 208.624 89.802,208.320 90.000,208.170 90.000 C 208.021 90.000,207.535 90.231,207.090 90.513 C 206.645 90.795,205.637 91.198,204.849 91.410 C 204.061 91.621,203.079 91.924,202.667 92.083 C 200.883 92.769,182.831 92.916,182.186 92.250 C 181.757 91.808,181.432 54.568,181.853 54.220 C 182.522 53.667,189.681 53.560,197.583 53.983 M302.439 54.014 L 303.000 54.361 303.000 58.272 L 303.000 62.184 303.578 62.425 C 304.000 62.602,304.868 62.667,306.802 62.667 C 310.221 62.667,310.038 62.498,310.136 65.736 C 310.233 68.984,310.397 68.833,306.775 68.833 C 305.226 68.833,303.823 68.912,303.525 69.016 L 303.000 69.199 303.011 75.391 C 303.024 82.366,303.253 84.217,304.178 84.835 C 304.401 84.984,304.824 85.269,305.118 85.470 C 306.031 86.090,308.117 85.589,309.124 84.507 C 309.439 84.169,310.918 84.832,311.071 85.380 C 311.405 86.580,311.608 87.043,311.937 87.352 C 312.150 87.552,312.444 88.127,312.590 88.630 L 312.856 89.545 312.370 90.144 C 312.104 90.474,311.504 90.932,311.038 91.163 C 310.573 91.394,310.007 91.757,309.781 91.970 C 309.494 92.240,309.026 92.410,308.227 92.532 C 307.598 92.628,306.695 92.819,306.221 92.955 C 305.296 93.222,304.863 93.197,302.667 92.749 C 301.887 92.590,301.083 92.431,300.878 92.395 C 300.674 92.358,300.279 92.106,300.000 91.833 C 299.721 91.561,299.307 91.291,299.080 91.234 C 298.853 91.177,298.667 91.066,298.667 90.988 C 298.667 90.909,298.223 90.532,297.681 90.149 C 297.036 89.695,296.549 89.186,296.273 88.680 C 296.042 88.254,295.701 87.732,295.517 87.520 C 294.966 86.885,294.667 82.134,294.667 74.041 L 294.667 69.316 294.089 69.075 C 293.771 68.942,293.176 68.833,292.766 68.833 C 292.357 68.833,291.829 68.760,291.594 68.671 L 291.167 68.508 291.167 65.921 C 291.167 62.857,291.253 62.667,292.644 62.667 C 293.212 62.667,293.587 62.563,293.894 62.321 L 294.333 61.976 294.333 58.146 L 294.333 54.317 295.042 53.996 C 296.145 53.494,301.620 53.508,302.439 54.014 M191.388 61.777 C 190.689 62.388,190.667 62.756,190.667 73.854 L 190.667 84.491 191.158 84.746 C 192.289 85.330,198.890 84.985,200.583 84.253 C 200.950 84.094,201.588 83.871,202.000 83.757 C 202.412 83.643,203.121 83.313,203.574 83.025 C 204.028 82.736,204.478 82.500,204.574 82.500 C 204.806 82.500,206.043 81.056,206.396 80.373 C 206.550 80.076,206.746 79.833,206.832 79.833 C 207.141 79.833,207.365 79.106,207.594 77.360 C 207.721 76.383,207.915 75.232,208.025 74.803 C 208.179 74.200,208.179 73.707,208.027 72.636 C 207.919 71.874,207.727 70.500,207.600 69.583 C 207.404 68.157,207.284 67.785,206.769 67.004 C 206.438 66.502,206.167 66.025,206.167 65.944 C 206.167 65.651,204.399 64.039,203.672 63.669 C 203.262 63.460,202.737 63.152,202.505 62.984 C 202.273 62.815,201.596 62.570,201.000 62.439 C 200.404 62.307,199.579 62.065,199.167 61.900 C 198.000 61.434,191.893 61.337,191.388 61.777 M255.651 63.125 C 256.130 63.423,256.660 63.667,256.829 63.667 C 256.997 63.667,257.455 63.934,257.846 64.260 C 259.441 65.593,260.052 65.538,260.472 64.022 C 260.828 62.739,261.068 62.667,264.963 62.667 C 267.411 62.667,268.174 62.719,268.426 62.903 C 268.742 63.134,268.751 63.506,268.795 77.679 C 268.843 92.956,268.817 93.595,268.101 94.658 C 267.882 94.984,267.620 95.513,267.519 95.833 C 267.417 96.154,267.072 96.786,266.751 97.238 C 266.429 97.689,266.167 98.117,266.167 98.189 C 266.167 98.360,263.358 101.167,263.187 101.167 C 263.114 101.167,262.648 101.455,262.152 101.808 C 261.656 102.161,261.038 102.501,260.778 102.565 C 260.519 102.628,260.009 102.877,259.645 103.118 C 259.281 103.358,258.668 103.607,258.283 103.670 C 257.898 103.733,256.646 103.980,255.500 104.220 C 252.631 104.821,250.394 104.804,248.333 104.165 C 248.012 104.066,247.182 103.881,246.488 103.755 C 245.704 103.613,244.895 103.331,244.355 103.013 C 243.877 102.731,243.379 102.500,243.248 102.500 C 243.118 102.500,242.765 102.289,242.464 102.031 C 242.163 101.772,241.635 101.391,241.292 101.184 C 240.581 100.754,240.450 100.003,240.907 98.964 C 241.040 98.663,241.192 98.144,241.245 97.810 C 241.298 97.477,241.526 96.952,241.750 96.644 C 241.975 96.335,242.250 95.896,242.362 95.667 C 242.720 94.928,243.188 94.501,243.481 94.646 C 243.629 94.719,244.170 94.869,244.684 94.979 C 245.197 95.089,245.765 95.317,245.944 95.484 C 246.440 95.946,246.837 96.113,247.750 96.243 C 248.208 96.309,249.083 96.581,249.695 96.848 C 251.269 97.535,252.506 97.511,254.901 96.747 C 255.901 96.428,256.825 96.167,256.954 96.167 C 257.406 96.167,259.757 94.132,260.118 93.429 C 260.262 93.147,260.551 92.712,260.759 92.463 C 261.226 91.903,261.510 89.664,261.166 89.249 C 260.855 88.875,260.375 88.949,260.067 89.419 C 259.916 89.649,259.597 89.886,259.358 89.946 C 259.119 90.006,258.576 90.305,258.150 90.611 C 257.725 90.917,257.236 91.167,257.063 91.168 C 256.891 91.169,256.262 91.327,255.667 91.521 C 252.977 92.393,250.893 92.406,248.404 91.565 C 247.756 91.346,247.118 91.166,246.987 91.166 C 246.857 91.166,246.412 90.941,246.000 90.667 C 245.588 90.392,245.005 90.121,244.705 90.065 C 244.402 90.007,243.996 89.758,243.789 89.503 C 243.584 89.251,243.213 88.915,242.965 88.757 C 242.716 88.599,242.472 88.346,242.422 88.193 C 242.373 88.041,242.070 87.747,241.749 87.540 C 241.429 87.333,241.167 87.056,241.167 86.925 C 241.167 86.794,240.948 86.448,240.681 86.156 C 240.414 85.863,240.109 85.277,240.003 84.854 C 239.897 84.430,239.627 83.891,239.403 83.655 C 238.994 83.226,238.938 83.010,238.466 80.083 C 237.985 77.097,238.567 72.247,239.531 71.218 C 239.719 71.018,239.940 70.493,240.022 70.052 C 240.124 69.500,240.326 69.104,240.669 68.783 C 240.943 68.526,241.167 68.249,241.167 68.166 C 241.167 68.083,241.513 67.656,241.935 67.216 C 242.358 66.776,242.940 66.166,243.227 65.860 C 243.515 65.554,244.012 65.189,244.333 65.049 C 244.654 64.909,245.162 64.579,245.461 64.316 C 245.761 64.053,246.211 63.795,246.461 63.742 C 246.944 63.641,247.030 63.598,247.731 63.103 C 248.445 62.599,249.089 62.516,252.015 62.551 L 254.780 62.583 255.651 63.125 M335.352 63.116 C 335.938 63.404,336.641 63.689,336.915 63.750 C 337.189 63.810,337.771 64.116,338.207 64.430 C 338.644 64.743,339.096 65.000,339.213 65.000 C 339.422 65.000,341.167 66.868,341.167 67.092 C 341.167 67.154,341.439 67.576,341.771 68.029 C 342.739 69.348,342.987 72.468,342.994 83.446 L 343.000 91.976 342.561 92.321 C 342.150 92.644,341.908 92.667,338.823 92.667 C 335.066 92.667,335.000 92.645,335.000 91.431 C 335.000 90.283,334.451 89.900,333.845 90.625 C 333.596 90.923,333.324 91.167,333.239 91.167 C 333.155 91.167,332.704 91.430,332.237 91.751 C 330.636 92.854,326.794 93.516,324.999 92.999 C 324.679 92.907,323.860 92.716,323.180 92.575 C 322.284 92.389,321.790 92.184,321.383 91.826 C 321.074 91.555,320.714 91.333,320.583 91.333 C 320.358 91.333,319.271 90.444,318.684 89.781 C 318.537 89.614,318.210 89.244,317.958 88.959 C 317.706 88.673,317.500 88.309,317.500 88.149 C 317.500 87.990,317.328 87.647,317.119 87.388 C 315.867 85.842,315.835 80.287,317.069 78.820 C 317.306 78.538,317.500 78.207,317.500 78.083 C 317.500 77.763,318.817 76.516,319.447 76.238 C 319.739 76.110,320.025 75.928,320.083 75.833 C 320.257 75.553,321.456 75.000,321.891 75.000 C 322.114 75.000,322.961 74.799,323.773 74.553 C 325.300 74.091,326.450 73.967,331.333 73.741 C 334.360 73.601,335.046 73.336,334.357 72.575 C 334.278 72.488,334.074 72.018,333.903 71.532 C 333.524 70.449,333.427 70.365,332.124 69.995 C 331.551 69.833,330.708 69.550,330.249 69.366 C 329.493 69.064,329.350 69.054,328.749 69.263 C 328.383 69.391,327.783 69.498,327.417 69.502 C 326.409 69.511,324.086 70.232,323.516 70.711 C 322.444 71.613,320.000 71.647,320.000 70.759 C 320.000 70.655,319.772 70.310,319.493 69.993 C 318.759 69.158,317.500 67.207,317.500 66.904 C 317.500 66.532,318.966 65.178,319.482 65.072 C 319.721 65.023,320.517 64.686,321.250 64.322 C 321.983 63.959,322.808 63.662,323.083 63.662 C 323.358 63.663,323.996 63.469,324.500 63.232 C 325.858 62.594,326.556 62.516,330.602 62.557 L 334.288 62.594 335.352 63.116 M172.247 62.832 C 173.183 63.188,173.167 62.919,173.167 78.066 L 173.167 91.976 172.728 92.321 C 172.000 92.893,165.462 92.851,165.083 92.272 C 164.641 91.599,164.787 63.511,165.234 63.017 C 165.589 62.626,171.307 62.475,172.247 62.832 M231.256 62.909 C 232.234 63.317,232.209 62.849,232.078 78.035 C 231.960 91.635,231.949 91.995,231.628 92.285 C 231.229 92.647,224.628 92.836,224.006 92.503 C 223.476 92.220,223.470 63.530,224.000 63.000 C 224.437 62.563,230.255 62.490,231.256 62.909 M284.766 63.017 C 285.214 63.512,285.360 91.597,284.918 92.271 C 284.593 92.767,278.363 92.892,277.245 92.425 L 276.667 92.184 276.667 78.103 C 276.667 63.046,276.652 63.302,277.540 62.916 C 278.525 62.488,284.361 62.570,284.766 63.017 M252.500 69.862 C 252.179 69.950,251.646 70.092,251.315 70.178 C 250.705 70.335,249.731 70.982,249.034 71.693 C 247.815 72.937,247.500 73.348,247.496 73.696 C 247.494 73.909,247.346 74.406,247.168 74.799 C 246.722 75.781,246.599 76.911,246.820 78.001 C 247.243 80.087,247.638 81.253,248.116 81.826 C 248.388 82.151,248.741 82.620,248.902 82.868 C 249.890 84.388,254.015 85.471,255.583 84.622 C 255.858 84.473,256.458 84.172,256.917 83.952 C 257.375 83.733,257.999 83.260,258.302 82.902 C 259.594 81.378,260.000 80.778,260.000 80.396 C 260.000 80.172,260.158 79.523,260.351 78.953 C 260.906 77.317,260.150 72.667,259.330 72.667 C 259.242 72.667,258.979 72.363,258.745 71.992 C 258.511 71.621,258.191 71.269,258.035 71.211 C 257.878 71.152,257.557 70.899,257.320 70.648 C 257.061 70.373,256.631 70.149,256.237 70.083 C 255.877 70.023,255.366 69.905,255.100 69.820 C 254.500 69.629,253.272 69.649,252.500 69.862 M328.167 80.235 C 325.322 80.624,324.360 81.753,324.894 84.075 C 325.211 85.457,326.466 86.083,328.914 86.083 L 330.750 86.083 332.080 85.332 C 334.131 84.172,335.205 80.951,333.766 80.269 C 333.090 79.948,330.391 79.932,328.167 80.235 " stroke="none" fill="none" fill-rule="evenodd"></path></g></svg>